<?xml version="1.0" encoding="UTF-8"?>
<svg id="Layer_3" data-name="Layer 3" xmlns="http://www.w3.org/2000/svg" viewBox="0 0 1296 700">
  <defs>
    <style>
      .cls-1, .cls-2, .cls-3 {
        fill: #fff;
      }

      .cls-2 {
        stroke-width: 1.99px;
      }

      .cls-2, .cls-4, .cls-3 {
        stroke: #000;
        stroke-miterlimit: 10;
      }

      .cls-4 {
        stroke-width: .28px;
      }

      .cls-3 {
        stroke-width: .4px;
      }
    </style>
  </defs>
  <rect class="cls-4" y="-298" width="1306.06" height="1306.06"/>
  <g>
    <path class="cls-2" d="M382.93,60.92h0c23.38,0,42.37,18.98,42.37,42.37V484.6h0c-23.38,0-42.37-18.98-42.37-42.37V60.92h0Z" transform="translate(117.66 -121.77) rotate(20)"/>
    <text/>
    <path class="cls-2" d="M308.35,382.86h-3.81s-140.24-84.14-140.24-84.14c-9.99-5.99-16.1-16.79-16.1-28.44h0c0-11.76,6.22-22.63,16.36-28.59l139.98-82.28h3.81s0,18.31,0,18.31c0,12.01-6.49,23.07-16.96,28.94l-62.66,35.08c-22.5,12.6-22.65,44.93-.26,57.73l63.17,36.1c10.33,5.9,16.71,16.89,16.71,28.79v18.5Z"/>
    <path class="cls-2" d="M987.65,382.86v-18.5c0-11.9,6.38-22.89,16.71-28.79l63.17-36.1c22.39-12.8,22.25-45.13-.26-57.73l-62.66-35.08c-10.48-5.86-16.96-16.93-16.96-28.94v-18.31h3.81s139.98,82.28,139.98,82.28c10.13,5.96,16.36,16.83,16.36,28.59h0c0,11.65-6.11,22.44-16.1,28.44l-140.24,84.14h-3.81Z"/>
    <path class="cls-2" d="M524.83,161.64h14.09c5.39,0,9.94,3.98,10.66,9.32h0c1.04,7.75,9.7,11.77,16.36,7.66,7.91-4.89,16.38-9.22,25.4-13,14.6-6.1,28.67-9.02,42.21-8.76,10.09,0,19.52,2.46,28.28,7.37,8.76,4.92,15.79,12.88,21.11,23.89,5.31,11.02,7.96,25.69,7.96,44.01v139.39c0,5.94-4.82,10.76-10.76,10.76h-17.91c-5.94,0-10.76-4.82-10.76-10.76V238.51c0-15.4-2.59-26.48-7.77-33.26-5.18-6.77-13.08-10.16-23.7-10.16-9.3,0-19.45,2.33-30.46,6.97-9.89,4.17-20.9,10.85-33.03,20.05-2.66,2.02-4.2,5.21-4.2,8.54v140.87c0,5.94-4.82,10.76-10.76,10.76h-16.72c-5.94,0-10.76-4.82-10.76-10.76V172.4c0-5.94,4.82-10.76,10.76-10.76Z"/>
    <path class="cls-2" d="M764.2,342.38l95.06-115.43c9.41-11.43,1.28-28.66-13.53-28.66h-65.62c-9.68,0-17.52-7.85-17.52-17.52h0c0-9.68,7.85-17.52,17.52-17.52h135.41c9.68,0,17.52,7.85,17.52,17.52v11.24c0,4.06-1.41,8-4,11.14l-95.06,115.43c-9.41,11.43-1.28,28.66,13.53,28.66h74.38c9.68,0,17.52,7.85,17.52,17.52h0c0,9.68-7.85,17.52-17.52,17.52h-144.17c-9.68,0-17.52-7.85-17.52-17.52v-11.24c0-4.06,1.41-8,4-11.14Z"/>
    <path class="cls-1" d="M154.21,551.92h14.07c.29,13.65,.9,26.03,1.83,37.14,.93,11.11,2.22,20.91,3.88,29.39l13.63-41.23h12.02l13.63,41.23c1.66-8.48,2.95-18.28,3.88-29.39,.93-11.11,1.54-23.49,1.83-37.14h14.07c-.49,17.74-1.61,33.34-3.37,46.79-1.76,13.45-4.06,24.66-6.89,33.63h-17.59l-11.58-38.89-11.58,38.89h-17.59c-2.84-8.97-5.13-20.18-6.89-33.63-1.76-13.45-2.88-29.05-3.37-46.79Z"/>
    <path class="cls-1" d="M378.02,634.68c-7.72,0-14.56-1.63-20.52-4.9-5.96-3.26-10.63-8.04-14-14.33-3.37-6.29-5.06-13.96-5.06-23.03,0-13.75,3.37-24.32,10.11-31.73,6.74-7.41,15.83-11.11,27.26-11.11,7.13,0,13.14,1.51,18.03,4.53,4.89,3.02,8.7,7.04,11.43,12.06,2.73,5.02,4.4,10.53,4.98,16.52,.59,5.99,.05,11.92-1.61,17.77h-55.84c.68,5.26,2.29,9.48,4.84,12.65,2.54,3.17,5.72,5.46,9.53,6.87,3.81,1.41,7.92,2.12,12.31,2.12,2.25,0,5.42-.34,9.53-1.02,4.1-.68,8.6-2.09,13.48-4.24l4.84,11.11c-6.55,3.02-12.12,4.9-16.71,5.63-4.59,.73-8.79,1.1-12.6,1.1Zm-25.8-46.64h45.44c.39-4.58-.22-8.8-1.83-12.65-1.61-3.85-4.15-6.97-7.62-9.36-3.47-2.39-7.75-3.58-12.83-3.58s-9.06,1.2-12.53,3.58c-3.47,2.39-6.11,5.51-7.92,9.36-1.81,3.85-2.71,8.07-2.71,12.65Z"/>
    <path class="cls-1" d="M542.03,633.51h-13.92v-100.01l-13.48-2.34v-8.48h27.41v39.04c2.44-3.31,5.37-5.97,8.79-7.97,3.42-2,7.33-3,11.73-3,5.28,0,9.87,1.15,13.78,3.44,3.91,2.29,7.18,5.44,9.82,9.43,2.64,4,4.62,8.48,5.94,13.45,1.32,4.97,1.98,10.19,1.98,15.65,0,7.31-1.17,14.16-3.52,20.54-2.35,6.39-5.86,11.55-10.55,15.5-4.69,3.95-10.51,5.92-17.44,5.92-4.3,0-8.16-.98-11.58-2.92-3.42-1.95-6.4-4.53-8.94-7.75v9.5Zm18.91-11.55c3.61,0,6.67-.88,9.16-2.63,2.49-1.76,4.47-4.07,5.94-6.95,1.47-2.87,2.54-6.04,3.22-9.5,.68-3.46,1.03-6.85,1.03-10.16s-.34-6.68-1.03-10.09c-.68-3.41-1.76-6.55-3.22-9.43-1.47-2.87-3.44-5.19-5.94-6.95-2.49-1.75-5.55-2.63-9.16-2.63-4.4,0-8.21,1.46-11.43,4.39-3.22,2.92-5.72,6.43-7.48,10.53v29.1c1.76,4.09,4.25,7.51,7.48,10.24,3.22,2.73,7.04,4.09,11.43,4.09Z"/>
    <path class="cls-1" d="M767.31,613.19c0,5.36,3.13,8.19,9.38,8.48v11.84c-3.91,.19-7.26-.02-10.04-.66-2.78-.63-5.11-1.68-6.96-3.14-2.74,1.46-5.77,2.68-9.09,3.66-3.32,.97-6.84,1.46-10.55,1.46-6.74,0-13-1.78-18.76-5.34-5.77-3.56-10.38-8.53-13.85-14.91-3.47-6.38-5.2-13.77-5.2-22.15,0-8.97,1.56-16.55,4.69-22.74,3.13-6.19,7.28-10.89,12.46-14.11,5.18-3.22,10.8-4.83,16.86-4.83,3.42,0,6.57,.56,9.45,1.68,2.88,1.12,5.45,2.66,7.7,4.61v-34.36h13.92v90.51Zm-51.15-20.76c0,5.95,1.05,11.16,3.15,15.64,2.1,4.48,4.96,7.95,8.57,10.38,3.61,2.44,7.67,3.66,12.16,3.66,5.18,0,9.62-.78,13.34-2.34v-50.01c-1.66-1.85-3.76-3.34-6.3-4.46-2.54-1.12-5.18-1.68-7.92-1.68-7.91,0-13.73,2.56-17.44,7.68-3.71,5.12-5.57,12.16-5.57,21.13Z"/>
    <path class="cls-1" d="M923.26,634.68c-7.72,0-14.56-1.63-20.52-4.9-5.96-3.26-10.63-8.04-14-14.33-3.37-6.29-5.06-13.96-5.06-23.03,0-13.75,3.37-24.32,10.11-31.73,6.74-7.41,15.83-11.11,27.26-11.11,7.13,0,13.14,1.51,18.03,4.53,4.89,3.02,8.7,7.04,11.43,12.06,2.73,5.02,4.4,10.53,4.98,16.52,.59,5.99,.05,11.92-1.61,17.77h-55.84c.68,5.26,2.3,9.48,4.84,12.65,2.54,3.17,5.72,5.46,9.53,6.87,3.81,1.41,7.91,2.12,12.31,2.12,2.25,0,5.42-.34,9.53-1.02,4.1-.68,8.6-2.09,13.49-4.24l4.84,11.11c-6.55,3.02-12.12,4.9-16.71,5.63-4.59,.73-8.79,1.1-12.6,1.1Zm-25.8-46.64h45.44c.39-4.58-.22-8.8-1.83-12.65-1.61-3.85-4.15-6.97-7.62-9.36-3.47-2.39-7.74-3.58-12.83-3.58s-9.07,1.2-12.53,3.58c-3.47,2.39-6.11,5.51-7.92,9.36-1.81,3.85-2.71,8.07-2.71,12.65Z"/>
    <path class="cls-1" d="M1065.28,551.92h15.1c2.64,10.82,5.13,20.3,7.47,28.44,2.35,8.14,4.69,15.38,7.04,21.71,2.35,6.34,4.84,12.19,7.47,17.55,2.64-5.36,5.13-11.21,7.47-17.55,2.35-6.34,4.69-13.57,7.04-21.71,2.35-8.14,4.84-17.62,7.47-28.44h15.1c-2.54,10.33-4.96,19.45-7.26,27.34-2.3,7.9-4.59,14.94-6.89,21.13-2.3,6.19-4.64,11.84-7.04,16.96-2.4,5.12-5.01,10.11-7.84,14.99h-16.12c-2.74-4.87-5.33-9.87-7.77-14.99-2.44-5.12-4.81-10.77-7.11-16.96-2.3-6.19-4.59-13.23-6.89-21.13-2.3-7.9-4.72-17.01-7.26-27.34Z"/>
    <path class="cls-3" d="M279.21,545.95h0c5.12,0,9.27,4.15,9.27,9.27v83.42h0c-5.12,0-9.27-4.15-9.27-9.27v-83.42h0Z" transform="translate(877.65 311.63) rotate(90.31)"/>
    <path class="cls-3" d="M467.29,545.95h0c5.12,0,9.27,4.15,9.27,9.27v83.42h0c-5.12,0-9.27-4.15-9.27-9.27v-83.42h0Z" transform="translate(1066.74 123.55) rotate(90.31)"/>
    <path class="cls-3" d="M643.37,545.95h0c5.12,0,9.27,4.15,9.27,9.27v83.42h0c-5.12,0-9.27-4.15-9.27-9.27v-83.42h0Z" transform="translate(1243.76 -52.52) rotate(90.31)"/>
    <path class="cls-3" d="M818.42,545.95h0c5.12,0,9.27,4.15,9.27,9.27v83.42h0c-5.12,0-9.27-4.15-9.27-9.27v-83.42h0Z" transform="translate(1419.75 -227.58) rotate(90.31)"/>
    <path class="cls-3" d="M1010.47,545.95h0c5.12,0,9.27,4.15,9.27,9.27v83.42h0c-5.12,0-9.27-4.15-9.27-9.27v-83.42h0Z" transform="translate(1612.82 -419.62) rotate(90.31)"/>
  </g>
</svg>