<?xml version="1.0" encoding="UTF-8"?>
<svg id="Layer_3" data-name="Layer 3" xmlns="http://www.w3.org/2000/svg" viewBox="0 0 1296 700">
  <defs>
    <style>
      .cls-1 {
        stroke-width: 29.79px;
      }

      .cls-1, .cls-2 {
        fill: #fff;
        stroke: #fff;
      }

      .cls-1, .cls-2, .cls-3 {
        stroke-miterlimit: 10;
      }

      .cls-2 {
        stroke-width: 20.08px;
      }

      .cls-3 {
        stroke: #000;
        stroke-width: .28px;
      }
    </style>
  </defs>
  <rect class="cls-3" x="-8.83" y="-303.03" width="1306.06" height="1306.06"/>
  <g>
    <path class="cls-2" d="M597.4,10.63h0c37.48,0,67.91,30.43,67.91,67.91V689.7h0c-37.48,0-67.91-30.43-67.91-67.91V10.63h0Z" transform="translate(157.84 -194.82) rotate(20)"/>
    <path class="cls-1" d="M431.08,613.82h-9.07S88.55,413.75,88.55,413.75c-23.75-14.25-38.28-39.92-38.28-67.62h0c0-27.95,14.8-53.81,38.89-67.98L422.01,82.51h9.07s0,43.54,0,43.54c0,28.55-15.43,54.86-40.34,68.81l-149,83.4c-53.51,29.95-53.85,106.84-.61,137.27l150.21,85.84c24.57,14.04,39.73,40.17,39.73,68.46v44Z"/>
    <path class="cls-1" d="M847.96,569.83c0-28.3,15.16-54.42,39.73-68.46l150.21-85.84c53.24-30.43,52.9-107.32-.61-137.27l-149-83.4c-24.91-13.94-40.34-40.26-40.34-68.81v-43.54s9.07,0,9.07,0l332.85,195.65c24.1,14.16,38.89,40.03,38.89,67.98h0c0,27.7-14.53,53.37-38.28,67.62l-333.46,200.07h-9.07s0-44,0-44Z"/>
  </g>
</svg>