<?xml version="1.0" encoding="UTF-8"?>
<svg id="Layer_3" data-name="Layer 3" xmlns="http://www.w3.org/2000/svg" viewBox="0 0 1296 700">
  <defs>
    <style>
      .cls-1 {
        stroke: #000;
        stroke-width: .28px;
      }

      .cls-1, .cls-2 {
        stroke-miterlimit: 10;
      }

      .cls-2 {
        fill: #fff;
        stroke: #fff;
        stroke-width: 14.17px;
      }
    </style>
  </defs>
  <rect class="cls-1" x="-5.03" y="-303.03" width="1306.06" height="1306.06"/>
  <g>
    <path class="cls-2" d="M348.17,110.38h0c26.45,0,47.92,21.47,47.92,47.92v431.32h0c-26.45,0-47.92-21.47-47.92-47.92V110.38h0Z" transform="translate(142.15 -106.17) rotate(20)"/>
    <path class="cls-2" d="M263.81,474.54h-4.32s-158.63-95.18-158.63-95.18c-11.3-6.78-18.21-18.99-18.21-32.17h0c0-13.3,7.04-25.6,18.5-32.34l158.34-93.07h4.32s0,20.71,0,20.71c0,13.58-7.34,26.1-19.19,32.73l-70.88,39.68c-25.46,14.25-25.62,50.83-.29,65.3l71.46,40.83c11.69,6.68,18.9,19.11,18.9,32.57v20.93Z"/>
    <path class="cls-2" d="M1032.19,474.54v-20.93c0-13.46,7.21-25.89,18.9-32.57l71.46-40.83c25.33-14.47,25.17-51.05-.29-65.3l-70.88-39.68c-11.85-6.63-19.19-19.15-19.19-32.73v-20.71h4.31s158.34,93.07,158.34,93.07c11.46,6.74,18.5,19.04,18.5,32.34h0c0,13.18-6.91,25.39-18.21,32.17l-158.63,95.18h-4.31Z"/>
    <path class="cls-2" d="M508.68,224.31h15.93c6.09,0,11.25,4.51,12.06,10.55h0c1.18,8.77,10.98,13.32,18.5,8.66,8.95-5.53,18.52-10.43,28.73-14.7,16.51-6.9,32.43-10.2,47.75-9.91,11.41,0,22.08,2.78,31.98,8.34,9.91,5.56,17.86,14.57,23.88,27.03,6,12.47,9.01,29.06,9.01,49.78v157.67c0,6.72-5.45,12.17-12.17,12.17h-20.26c-6.72,0-12.17-5.45-12.17-12.17v-150.46c0-17.41-2.93-29.96-8.78-37.62-5.86-7.66-14.8-11.49-26.81-11.49-10.52,0-22,2.63-34.46,7.88-11.19,4.72-23.64,12.28-37.37,22.68-3.01,2.28-4.75,5.89-4.75,9.66v159.34c0,6.72-5.45,12.17-12.17,12.17h-18.92c-6.72,0-12.17-5.45-12.17-12.17V236.48c0-6.72,5.45-12.17,12.17-12.17Z"/>
    <path class="cls-2" d="M779.44,428.75l107.53-130.57c10.65-12.93,1.45-32.42-15.3-32.42h-74.23c-10.95,0-19.82-8.87-19.82-19.82h0c0-10.95,8.87-19.82,19.82-19.82h153.17c10.95,0,19.82,8.87,19.82,19.82v12.71c0,4.6-1.6,9.05-4.52,12.6l-107.53,130.57c-10.65,12.93-1.45,32.42,15.3,32.42h84.14c10.95,0,19.82,8.87,19.82,19.82h0c0,10.95-8.87,19.82-19.82,19.82h-163.08c-10.95,0-19.82-8.87-19.82-19.82v-12.71c0-4.6,1.6-9.05,4.52-12.6Z"/>
  </g>
</svg>