<?xml version="1.0" encoding="UTF-8"?>
<svg id="NZ" xmlns="http://www.w3.org/2000/svg" viewBox="0 0 1296 700">
  <defs>
    <style>
      .cls-1, .cls-2 {
        stroke-width: 1.94px;
      }

      .cls-1, .cls-2, .cls-3 {
        stroke: #000;
        stroke-miterlimit: 10;
      }

      .cls-2, .cls-3 {
        fill: blue;
      }

      .cls-3 {
        stroke-width: .39px;
      }
    </style>
  </defs>
  <path class="cls-2" d="M389.47,68.05h0c22.81,0,41.32,18.52,41.32,41.32V481.28h0c-22.81,0-41.32-18.52-41.32-41.32V68.05h0Z" transform="translate(118.67 -123.71) rotate(20)"/>
  <text/>
  <path class="cls-2" d="M316.73,382.05h-3.72s-136.78-82.07-136.78-82.07c-9.74-5.85-15.7-16.37-15.7-27.74h0c0-11.47,6.07-22.07,15.95-27.88l136.53-80.25h3.72s0,17.86,0,17.86c0,11.71-6.33,22.5-16.55,28.22l-61.12,34.21c-21.95,12.29-22.09,43.83-.25,56.31l61.62,35.21c10.08,5.76,16.3,16.48,16.3,28.08v18.05Z"/>
  <path class="cls-2" d="M979.27,382.05v-18.05c0-11.61,6.22-22.32,16.3-28.08l61.61-35.21c21.84-12.48,21.7-44.02-.25-56.31l-61.12-34.21c-10.22-5.72-16.55-16.51-16.55-28.22v-17.86h3.72s136.53,80.25,136.53,80.25c9.88,5.81,15.95,16.42,15.95,27.88h0c0,11.36-5.96,21.89-15.7,27.74l-136.78,82.07h-3.72Z"/>
  <path class="cls-1" d="M527.87,166.29h13.74c5.25,0,9.7,3.89,10.4,9.09h0c1.02,7.56,9.46,11.48,15.95,7.47,7.71-4.77,15.97-9,24.78-12.68,14.24-5.95,27.97-8.8,41.17-8.55,9.84,0,19.04,2.4,27.58,7.19,8.55,4.79,15.4,12.56,20.59,23.3,5.18,10.75,7.77,25.05,7.77,42.92v135.95c0,5.79-4.7,10.49-10.49,10.49h-17.47c-5.79,0-10.49-4.7-10.49-10.49V241.26c0-15.02-2.53-25.83-7.57-32.44-5.05-6.6-12.76-9.91-23.12-9.91-9.07,0-18.97,2.27-29.71,6.8-9.65,4.07-20.39,10.59-32.22,19.55-2.59,1.97-4.1,5.08-4.1,8.33v137.39c0,5.79-4.7,10.49-10.49,10.49h-16.31c-5.79,0-10.49-4.7-10.49-10.49V176.78c0-5.79,4.7-10.49,10.49-10.49Z"/>
  <path class="cls-1" d="M761.34,342.57l92.72-112.59c9.18-11.15,1.25-27.96-13.19-27.96h-64c-9.44,0-17.09-7.65-17.09-17.09h0c0-9.44,7.65-17.09,17.09-17.09h132.07c9.44,0,17.09,7.65,17.09,17.09v10.96c0,3.96-1.38,7.8-3.9,10.86l-92.72,112.59c-9.18,11.15-1.25,27.96,13.19,27.96h72.55c9.44,0,17.09,7.65,17.09,17.09h0c0,9.44-7.65,17.09-17.09,17.09h-140.61c-9.44,0-17.09-7.65-17.09-17.09v-10.96c0-3.96,1.38-7.8,3.9-10.86Z"/>
  <path d="M166.39,546.94h13.72c.29,13.31,.88,25.39,1.79,36.22,.9,10.84,2.17,20.39,3.79,28.66l13.3-40.22h11.72l13.3,40.22c1.62-8.27,2.88-17.83,3.79-28.66,.9-10.84,1.5-22.91,1.79-36.22h13.72c-.48,17.31-1.57,32.52-3.29,45.64-1.72,13.12-3.96,24.06-6.72,32.8h-17.15l-11.29-37.94-11.29,37.94h-17.15c-2.77-8.75-5-19.68-6.72-32.8-1.72-13.12-2.81-28.33-3.29-45.64Z"/>
  <path d="M384.68,627.66c-7.53,0-14.2-1.59-20.01-4.78-5.81-3.18-10.36-7.84-13.65-13.98-3.29-6.13-4.93-13.62-4.93-22.46,0-13.41,3.29-23.72,9.86-30.95,6.58-7.22,15.44-10.84,26.59-10.84,6.96,0,12.82,1.47,17.58,4.42,4.76,2.95,8.48,6.87,11.15,11.77,2.67,4.9,4.29,10.27,4.86,16.12,.57,5.85,.05,11.62-1.57,17.33h-54.47c.67,5.13,2.24,9.25,4.72,12.34,2.48,3.09,5.58,5.33,9.29,6.7,3.72,1.38,7.72,2.07,12.01,2.07,2.19,0,5.29-.33,9.29-1,4-.66,8.39-2.04,13.15-4.14l4.72,10.84c-6.39,2.95-11.82,4.78-16.3,5.49-4.48,.71-8.58,1.07-12.29,1.07Zm-25.16-45.49h44.32c.38-4.47-.21-8.58-1.79-12.34-1.57-3.76-4.05-6.8-7.43-9.13-3.38-2.33-7.55-3.49-12.51-3.49s-8.84,1.17-12.22,3.49c-3.38,2.33-5.96,5.37-7.72,9.13-1.76,3.76-2.64,7.87-2.64,12.34Z"/>
  <path d="M544.64,626.52h-13.58v-97.55l-13.15-2.28v-8.27h26.73v38.08c2.38-3.23,5.24-5.82,8.58-7.77,3.34-1.95,7.15-2.92,11.44-2.92,5.15,0,9.62,1.12,13.44,3.35,3.81,2.24,7,5.3,9.58,9.2,2.57,3.9,4.5,8.27,5.79,13.12,1.29,4.85,1.93,9.94,1.93,15.26,0,7.13-1.14,13.81-3.43,20.04-2.29,6.23-5.72,11.27-10.29,15.12-4.57,3.85-10.25,5.78-17.01,5.78-4.19,0-7.96-.95-11.29-2.85-3.34-1.9-6.24-4.42-8.72-7.56v9.27Zm18.44-11.27c3.52,0,6.5-.86,8.93-2.57,2.43-1.71,4.36-3.97,5.79-6.78,1.43-2.8,2.48-5.89,3.14-9.27,.67-3.37,1-6.68,1-9.91s-.34-6.51-1-9.84c-.67-3.33-1.72-6.39-3.14-9.2-1.43-2.8-3.36-5.06-5.79-6.78-2.43-1.71-5.41-2.57-8.93-2.57-4.29,0-8.01,1.43-11.15,4.28-3.15,2.85-5.58,6.27-7.29,10.27v28.38c1.72,3.99,4.15,7.32,7.29,9.98,3.14,2.66,6.86,3.99,11.15,3.99Z"/>
  <path d="M764.37,606.7c0,5.23,3.05,7.99,9.15,8.27v11.55c-3.81,.19-7.08-.02-9.79-.64-2.72-.62-4.98-1.64-6.79-3.07-2.67,1.43-5.63,2.61-8.86,3.57-3.24,.95-6.67,1.43-10.29,1.43-6.58,0-12.68-1.74-18.3-5.21-5.63-3.47-10.13-8.32-13.51-14.55-3.38-6.23-5.08-13.43-5.08-21.61,0-8.75,1.52-16.14,4.57-22.18,3.05-6.04,7.1-10.62,12.15-13.76,5.05-3.14,10.53-4.71,16.44-4.71,3.34,0,6.41,.55,9.22,1.64,2.81,1.09,5.31,2.59,7.51,4.49v-33.51h13.58v88.28Zm-49.89-20.25c0,5.8,1.02,10.89,3.07,15.26,2.05,4.37,4.84,7.75,8.36,10.13,3.53,2.38,7.48,3.57,11.86,3.57,5.05,0,9.39-.76,13.01-2.28v-48.77c-1.62-1.81-3.67-3.26-6.15-4.35-2.48-1.09-5.05-1.64-7.72-1.64-7.72,0-13.39,2.5-17.01,7.49-3.62,4.99-5.43,11.86-5.43,20.61Z"/>
  <path d="M916.47,627.66c-7.53,0-14.2-1.59-20.01-4.78-5.81-3.18-10.36-7.84-13.65-13.98-3.29-6.13-4.93-13.62-4.93-22.46,0-13.41,3.29-23.72,9.86-30.95,6.58-7.22,15.44-10.84,26.59-10.84,6.96,0,12.82,1.47,17.58,4.42,4.76,2.95,8.48,6.87,11.15,11.77,2.67,4.9,4.29,10.27,4.86,16.12,.57,5.85,.05,11.62-1.57,17.33h-54.47c.67,5.13,2.24,9.25,4.72,12.34,2.48,3.09,5.58,5.33,9.29,6.7,3.72,1.38,7.72,2.07,12.01,2.07,2.19,0,5.29-.33,9.29-1,4-.66,8.39-2.04,13.15-4.14l4.72,10.84c-6.39,2.95-11.82,4.78-16.3,5.49-4.48,.71-8.58,1.07-12.29,1.07Zm-25.16-45.49h44.32c.38-4.47-.21-8.58-1.79-12.34-1.57-3.76-4.05-6.8-7.43-9.13-3.38-2.33-7.55-3.49-12.51-3.49s-8.84,1.17-12.22,3.49c-3.38,2.33-5.96,5.37-7.72,9.13-1.76,3.76-2.64,7.87-2.64,12.34Z"/>
  <path d="M1054.99,546.94h14.73c2.57,10.55,5,19.8,7.29,27.74,2.29,7.94,4.57,15,6.86,21.18,2.29,6.18,4.72,11.89,7.29,17.11,2.57-5.23,5-10.93,7.29-17.11,2.29-6.18,4.57-13.24,6.86-21.18,2.29-7.94,4.72-17.19,7.29-27.74h14.73c-2.48,10.08-4.84,18.97-7.08,26.67-2.24,7.7-4.48,14.57-6.72,20.61-2.24,6.04-4.53,11.55-6.86,16.54-2.34,4.99-4.89,9.87-7.65,14.62h-15.73c-2.67-4.75-5.19-9.63-7.58-14.62-2.38-4.99-4.7-10.5-6.93-16.54-2.24-6.04-4.48-12.91-6.72-20.61-2.24-7.7-4.6-16.59-7.08-26.67Z"/>
  <path class="cls-3" d="M288.3,541.12h0c4.99,0,9.04,4.05,9.04,9.04v81.36h0c-4.99,0-9.04-4.05-9.04-9.04v-81.36h0Z" transform="translate(880.7 296.65) rotate(90.31)"/>
  <path class="cls-3" d="M471.75,541.12h0c4.99,0,9.04,4.05,9.04,9.04v81.36h0c-4.99,0-9.04-4.05-9.04-9.04v-81.36h0Z" transform="translate(1065.13 113.2) rotate(90.31)"/>
  <path class="cls-3" d="M643.48,541.12h0c4.99,0,9.04,4.05,9.04,9.04v81.36h0c-4.99,0-9.04-4.05-9.04-9.04v-81.36h0Z" transform="translate(1237.78 -58.53) rotate(90.31)"/>
  <path class="cls-3" d="M814.22,541.12h0c4.99,0,9.04,4.05,9.04,9.04v81.36h0c-4.99,0-9.04-4.05-9.04-9.04v-81.36h0Z" transform="translate(1409.44 -229.27) rotate(90.31)"/>
  <path class="cls-3" d="M1001.53,541.12h0c4.99,0,9.04,4.05,9.04,9.04v81.36h0c-4.99,0-9.04-4.05-9.04-9.04v-81.36h0Z" transform="translate(1597.75 -416.57) rotate(90.31)"/>
</svg>